<svg xmlns="http://www.w3.org/2000/svg" xmlns:xlink="http://www.w3.org/1999/xlink" width="1080" zoomAndPan="magnify" viewBox="0 0 810 809.999993" height="1080" preserveAspectRatio="xMidYMid meet" version="1.0"><defs><clipPath id="3c581ca02f"><path d="M 20.25 20.25 L 789.75 20.25 L 789.75 789.75 L 20.25 789.75 Z M 20.25 20.25 " clip-rule="nonzero"/></clipPath><clipPath id="dffcb39ae9"><path d="M 405 20.25 L 789.75 20.25 L 789.75 405 L 405 405 Z M 405 20.25 " clip-rule="nonzero"/></clipPath><clipPath id="11898979e1"><path d="M 150.507812 150.507812 L 659.492188 150.507812 L 659.492188 659.492188 L 150.507812 659.492188 Z M 150.507812 150.507812 " clip-rule="nonzero"/></clipPath><clipPath id="cfed77951c"><path d="M 405 150.507812 C 264.445312 150.507812 150.507812 264.445312 150.507812 405 C 150.507812 545.550781 264.445312 659.492188 405 659.492188 C 545.550781 659.492188 659.492188 545.550781 659.492188 405 C 659.492188 264.445312 545.550781 150.507812 405 150.507812 Z M 405 150.507812 " clip-rule="nonzero"/></clipPath><clipPath id="177583a55a"><path d="M 214.464844 234.242188 L 595.464844 234.242188 L 595.464844 615 L 214.464844 615 Z M 214.464844 234.242188 " clip-rule="nonzero"/></clipPath></defs><rect x="-81" width="972" fill="#ffffff" y="-80.999999" height="971.999992" fill-opacity="1"/><rect x="-81" width="972" fill="#ffffff" y="-80.999999" height="971.999992" fill-opacity="1"/><g clip-path="url(#3c581ca02f)"><path fill="#5e17eb" d="M 437.65625 576.742188 C 401.585938 569.914062 365.515625 544.15625 325.960938 506.3125 L 279.640625 459.992188 C 240.085938 420.4375 214.332031 386.078125 209.210938 348.296875 C 202.308594 301.914062 226.355469 265.84375 253.820312 240.085938 C 260.71875 233.257812 267.617188 228.0625 276.15625 224.648438 C 286.472656 221.234375 298.496094 224.648438 307.105469 233.257812 C 322.542969 252.109375 337.984375 272.742188 351.78125 291.664062 C 356.90625 300.203125 358.613281 310.519531 356.90625 319.128906 C 353.492188 325.960938 350.007812 331.152344 343.175781 336.273438 C 331.152344 344.882812 324.25 358.613281 324.25 374.054688 C 325.960938 387.851562 332.859375 399.875 343.175781 408.414062 L 375.828125 441.070312 C 384.367188 451.386719 396.390625 458.21875 410.125 459.992188 C 425.5625 461.703125 439.363281 453.09375 449.609375 441.070312 C 454.800781 435.945312 459.992188 430.753906 466.824219 427.339844 C 477.140625 425.632812 485.679688 427.339844 494.289062 432.460938 C 513.210938 447.96875 533.773438 461.703125 552.695312 477.140625 C 561.304688 485.75 564.71875 496.0625 561.304688 508.085938 C 557.820312 516.625 552.695312 523.527344 545.796875 530.359375 C 513.210938 564.71875 473.65625 581.9375 437.585938 576.742188 Z M 405 20.25 C 191.992188 20.25 20.25 191.992188 20.25 405 C 20.25 618.007812 191.992188 789.75 405 789.75 C 618.007812 789.75 789.75 618.007812 789.75 405 C 789.75 191.992188 618.007812 20.25 405 20.25 " fill-opacity="1" fill-rule="nonzero"/></g><g clip-path="url(#dffcb39ae9)"><path fill="#5e17eb" d="M 405 20.25 L 789.75 20.25 L 789.75 405 L 405 405 Z M 405 20.25 " fill-opacity="1" fill-rule="nonzero"/></g><g clip-path="url(#11898979e1)"><g clip-path="url(#cfed77951c)"><path fill="#5e17eb" d="M 150.507812 150.507812 L 659.492188 150.507812 L 659.492188 659.492188 L 150.507812 659.492188 Z M 150.507812 150.507812 " fill-opacity="1" fill-rule="nonzero"/></g></g><g clip-path="url(#177583a55a)"><path fill="#ffffff" d="M 405 234.46875 C 401.878906 234.472656 398.761719 234.554688 395.648438 234.710938 C 392.53125 234.867188 389.421875 235.097656 386.316406 235.40625 C 383.210938 235.714844 380.117188 236.101562 377.03125 236.5625 C 373.945312 237.023438 370.875 237.558594 367.816406 238.167969 C 364.757812 238.78125 361.714844 239.464844 358.6875 240.226562 C 355.664062 240.988281 352.65625 241.820312 349.671875 242.730469 C 346.6875 243.636719 343.726562 244.617188 340.792969 245.667969 C 337.855469 246.722656 334.945312 247.847656 332.066406 249.042969 C 329.183594 250.238281 326.332031 251.503906 323.511719 252.839844 C 320.695312 254.171875 317.910156 255.578125 315.15625 257.046875 C 312.40625 258.519531 309.695312 260.058594 307.019531 261.664062 C 304.34375 263.269531 301.710938 264.9375 299.117188 266.671875 C 296.523438 268.40625 293.972656 270.203125 291.46875 272.058594 C 288.964844 273.917969 286.503906 275.839844 284.09375 277.816406 C 281.683594 279.796875 279.320312 281.835938 277.011719 283.929688 C 274.699219 286.023438 272.441406 288.175781 270.234375 290.382812 C 268.027344 292.585938 265.878906 294.847656 263.78125 297.15625 C 261.6875 299.46875 259.648438 301.828125 257.671875 304.242188 C 255.691406 306.652344 253.773438 309.109375 251.914062 311.617188 C 250.054688 314.121094 248.257812 316.671875 246.523438 319.261719 C 244.789062 321.855469 243.121094 324.492188 241.515625 327.167969 C 239.910156 329.839844 238.375 332.554688 236.902344 335.304688 C 235.429688 338.054688 234.027344 340.839844 232.691406 343.660156 C 231.355469 346.480469 230.089844 349.332031 228.894531 352.210938 C 227.699219 355.09375 226.574219 358.003906 225.523438 360.9375 C 224.46875 363.875 223.488281 366.835938 222.582031 369.820312 C 221.675781 372.804688 220.839844 375.808594 220.078125 378.835938 C 219.320312 381.859375 218.632812 384.902344 218.023438 387.960938 C 217.410156 391.023438 216.875 394.09375 216.414062 397.179688 C 215.953125 400.265625 215.570312 403.359375 215.261719 406.464844 C 214.953125 409.566406 214.71875 412.679688 214.5625 415.792969 C 214.40625 418.910156 214.328125 422.027344 214.324219 425.148438 C 224.796875 678.105469 585.238281 678.03125 595.675781 425.144531 C 595.675781 422.027344 595.59375 418.90625 595.4375 415.792969 C 595.28125 412.675781 595.046875 409.566406 594.738281 406.460938 C 594.429688 403.359375 594.046875 400.261719 593.585938 397.179688 C 593.125 394.09375 592.589844 391.019531 591.976562 387.960938 C 591.367188 384.902344 590.679688 381.859375 589.921875 378.835938 C 589.160156 375.808594 588.324219 372.804688 587.417969 369.820312 C 586.511719 366.835938 585.53125 363.875 584.476562 360.9375 C 583.425781 358 582.300781 355.09375 581.105469 352.210938 C 579.910156 349.328125 578.644531 346.480469 577.308594 343.660156 C 575.972656 340.839844 574.570312 338.054688 573.097656 335.304688 C 571.625 332.554688 570.089844 329.839844 568.484375 327.164062 C 566.878906 324.492188 565.210938 321.855469 563.476562 319.261719 C 561.742188 316.667969 559.945312 314.121094 558.085938 311.613281 C 556.226562 309.109375 554.308594 306.652344 552.328125 304.238281 C 550.347656 301.828125 548.3125 299.46875 546.214844 297.15625 C 544.121094 294.84375 541.972656 292.585938 539.765625 290.378906 C 537.558594 288.175781 535.300781 286.023438 532.988281 283.929688 C 530.679688 281.832031 528.316406 279.796875 525.90625 277.816406 C 523.496094 275.835938 521.035156 273.917969 518.53125 272.058594 C 516.027344 270.199219 513.476562 268.40625 510.882812 266.671875 C 508.289062 264.9375 505.65625 263.265625 502.980469 261.664062 C 500.304688 260.058594 497.589844 258.519531 494.839844 257.046875 C 492.089844 255.578125 489.304688 254.171875 486.484375 252.835938 C 483.667969 251.503906 480.816406 250.238281 477.933594 249.042969 C 475.054688 247.847656 472.144531 246.722656 469.207031 245.667969 C 466.269531 244.617188 463.3125 243.636719 460.324219 242.726562 C 457.339844 241.820312 454.335938 240.988281 451.3125 240.226562 C 448.285156 239.464844 445.242188 238.78125 442.183594 238.167969 C 439.125 237.558594 436.050781 237.023438 432.96875 236.5625 C 429.882812 236.101562 426.785156 235.714844 423.683594 235.40625 C 420.578125 235.097656 417.46875 234.867188 414.351562 234.710938 C 411.238281 234.550781 408.121094 234.472656 405 234.46875 Z M 464.976562 548.609375 C 362.527344 550.84375 272.894531 456.265625 280.9375 353.863281 C 279.417969 314.75 318.910156 293.550781 353 303.777344 C 353.566406 303.933594 354.101562 304.167969 354.601562 304.476562 C 355.101562 304.789062 355.546875 305.164062 355.941406 305.601562 C 356.332031 306.039062 356.652344 306.527344 356.90625 307.058594 C 357.15625 307.589844 357.328125 308.148438 357.417969 308.730469 L 369.847656 387.105469 C 369.527344 396.636719 353.554688 401.679688 345.867188 404.097656 C 347.433594 408.683594 349.253906 413.167969 351.328125 417.546875 C 353.40625 421.925781 355.726562 426.171875 358.289062 430.285156 C 360.851562 434.398438 363.640625 438.351562 366.65625 442.148438 C 369.671875 445.941406 372.894531 449.554688 376.320312 452.980469 C 379.75 456.40625 383.363281 459.625 387.15625 462.636719 C 390.953125 465.652344 394.910156 468.4375 399.023438 471 C 403.140625 473.558594 407.386719 475.878906 411.769531 477.953125 C 416.148438 480.027344 420.632812 481.84375 425.222656 483.40625 C 427.722656 475.398438 432.601562 459.742188 442.136719 459.40625 L 520.519531 471.824219 C 525.148438 472.199219 525.953125 478.121094 527.246094 481.542969 C 538.429688 520.761719 503.273438 553.378906 464.976562 548.609375 Z M 464.976562 548.609375 " fill-opacity="1" fill-rule="nonzero"/></g></svg>