<svg xmlns="http://www.w3.org/2000/svg" xmlns:xlink="http://www.w3.org/1999/xlink" width="2000" zoomAndPan="magnify" viewBox="0 0 1500 449.999984" height="600" preserveAspectRatio="xMidYMid meet" version="1.0"><defs><clipPath id="435c83ec58"><path d="M 444.464844 54.855469 L 656.019531 54.855469 L 656.019531 266.410156 L 444.464844 266.410156 Z M 444.464844 54.855469 " clip-rule="nonzero"/></clipPath><clipPath id="618fbd6877"><path d="M 550.242188 54.855469 C 491.824219 54.855469 444.464844 102.210938 444.464844 160.632812 C 444.464844 219.050781 491.824219 266.410156 550.242188 266.410156 C 608.660156 266.410156 656.019531 219.050781 656.019531 160.632812 C 656.019531 102.210938 608.660156 54.855469 550.242188 54.855469 Z M 550.242188 54.855469 " clip-rule="nonzero"/></clipPath><clipPath id="4409254c1d"><path d="M 46 55 L 145 55 L 145 395 L 46 395 Z M 46 55 " clip-rule="nonzero"/></clipPath><clipPath id="5f734451fa"><path d="M 95.421875 394.761719 C 68.324219 394.761719 46.152344 372.597656 46.152344 345.503906 L 46.152344 105.199219 C 46.152344 78.109375 68.324219 55.945312 95.421875 55.945312 C 122.519531 55.945312 144.6875 78.109375 144.6875 105.199219 L 144.6875 345.503906 C 144.6875 372.949219 122.519531 394.761719 95.421875 394.761719 Z M 95.421875 394.761719 " clip-rule="nonzero"/></clipPath><clipPath id="9a9a252252"><path d="M 46 55 L 275 55 L 275 343 L 46 343 Z M 46 55 " clip-rule="nonzero"/></clipPath><clipPath id="c55d30d5be"><path d="M 224.925781 342.339844 C 209.441406 342.339844 193.957031 334.949219 184.453125 320.875 L 54.953125 132.996094 C 39.46875 110.476562 45.097656 79.867188 67.621094 64.386719 C 90.140625 48.90625 120.757812 54.535156 136.242188 77.054688 L 265.746094 264.933594 C 281.226562 287.453125 275.597656 318.0625 253.078125 333.542969 C 244.277344 339.523438 234.777344 342.339844 224.925781 342.339844 Z M 224.925781 342.339844 " clip-rule="nonzero"/></clipPath><clipPath id="38c6a369b6"><path d="M 175 55 L 404 55 L 404 343 L 175 343 Z M 175 55 " clip-rule="nonzero"/></clipPath><clipPath id="b3063c9f00"><path d="M 224.921875 342.339844 C 215.421875 342.339844 205.570312 339.523438 197.121094 333.542969 C 174.601562 318.0625 168.96875 287.453125 184.453125 264.933594 L 313.957031 77.054688 C 329.441406 54.535156 360.058594 48.90625 382.578125 64.386719 C 405.101562 79.867188 410.730469 110.476562 395.246094 132.996094 L 265.394531 321.226562 C 255.890625 334.949219 240.40625 342.339844 224.921875 342.339844 Z M 224.921875 342.339844 " clip-rule="nonzero"/></clipPath><clipPath id="48d3c5118c"><path d="M 305 55 L 404 55 L 404 395 L 305 395 Z M 305 55 " clip-rule="nonzero"/></clipPath><clipPath id="d12837d9e6"><path d="M 354.425781 394.761719 C 327.328125 394.761719 305.160156 372.597656 305.160156 345.503906 L 305.160156 105.199219 C 305.160156 78.109375 327.328125 55.945312 354.425781 55.945312 C 381.523438 55.945312 403.691406 78.109375 403.691406 105.199219 L 403.691406 345.503906 C 403.691406 372.949219 381.523438 394.761719 354.425781 394.761719 Z M 354.425781 394.761719 " clip-rule="nonzero"/></clipPath><clipPath id="fb64e41857"><path d="M 508 116 L 593 116 L 593 205 L 508 205 Z M 508 116 " clip-rule="nonzero"/></clipPath><clipPath id="d7549c85c5"><path d="M 508.597656 115.519531 L 594.792969 118.695312 L 591.585938 205.636719 L 505.394531 202.460938 Z M 508.597656 115.519531 " clip-rule="nonzero"/></clipPath><clipPath id="11d15a8efb"><path d="M 508.597656 115.519531 L 594.792969 118.695312 L 591.585938 205.636719 L 505.394531 202.460938 Z M 508.597656 115.519531 " clip-rule="nonzero"/></clipPath></defs><g clip-path="url(#435c83ec58)"><g clip-path="url(#618fbd6877)"><path fill="#ff2d5a" d="M 444.464844 54.855469 L 656.019531 54.855469 L 656.019531 266.410156 L 444.464844 266.410156 Z M 444.464844 54.855469 " fill-opacity="1" fill-rule="nonzero"/></g></g><g clip-path="url(#4409254c1d)"><g clip-path="url(#5f734451fa)"><path fill="#ff2d5a" d="M 46.152344 55.945312 L 46.152344 394.761719 L 144.6875 394.761719 L 144.6875 55.945312 Z M 46.152344 55.945312 " fill-opacity="1" fill-rule="nonzero"/></g></g><g clip-path="url(#9a9a252252)"><g clip-path="url(#c55d30d5be)"><path fill="#ff2d5a" d="M 45 54.855469 L 45 342.339844 L 281.226562 342.339844 L 281.226562 54.855469 Z M 45 54.855469 " fill-opacity="1" fill-rule="nonzero"/></g></g><g clip-path="url(#38c6a369b6)"><g clip-path="url(#b3063c9f00)"><path fill="#ff2d5a" d="M 168.96875 54.855469 L 168.96875 342.339844 L 404.25 342.339844 L 404.25 54.855469 Z M 168.96875 54.855469 " fill-opacity="1" fill-rule="nonzero"/></g></g><g clip-path="url(#48d3c5118c)"><g clip-path="url(#d12837d9e6)"><path fill="#ff2d5a" d="M 305.160156 55.945312 L 305.160156 394.761719 L 403.691406 394.761719 L 403.691406 55.945312 Z M 305.160156 55.945312 " fill-opacity="1" fill-rule="nonzero"/></g></g><g clip-path="url(#fb64e41857)"><g clip-path="url(#d7549c85c5)"><g clip-path="url(#11d15a8efb)"><path fill="#ffffff" d="M 587.667969 180.089844 C 585.015625 178.265625 581.308594 176.523438 577.234375 175.179688 C 573.195312 173.847656 569.207031 173.046875 565.996094 172.929688 C 561.652344 172.769531 559.054688 173.867188 558.261719 176.226562 C 558.257812 176.230469 557.949219 177.191406 557.558594 178.339844 C 557.539062 178.402344 557.515625 178.476562 557.5 178.546875 L 556.636719 181.164062 C 555.769531 180.882812 555 180.382812 554.382812 179.691406 L 532.25 154.921875 C 531.367188 153.929688 530.921875 152.636719 530.976562 151.292969 C 531.136719 151.25 531.296875 151.210938 531.464844 151.164062 C 532.316406 151.289062 533.101562 151.164062 533.679688 150.851562 L 537.109375 149.121094 C 538.027344 148.652344 538.792969 148.265625 538.871094 148.222656 C 538.957031 148.1875 539.042969 148.152344 539.125 148.109375 C 543.667969 145.792969 540.976562 136.484375 537.296875 129.214844 C 536.210938 127.066406 530.507812 116.351562 525.054688 116.148438 C 524.371094 116.125 523.726562 116.257812 523.136719 116.550781 C 523.105469 116.566406 523.074219 116.585938 523.042969 116.601562 L 521.15625 117.554688 C 521.089844 117.585938 521.015625 117.628906 520.945312 117.671875 C 518.148438 119.078125 516.101562 120.625 513.902344 123 C 512.472656 124.542969 511.28125 126.226562 510.367188 128.011719 C 508.507812 131.628906 507.855469 135.578125 508.53125 139.152344 C 509.257812 149.855469 517.1875 164.394531 530.3125 179.089844 C 542.652344 192.898438 557.289062 202.683594 568.515625 204.625 C 569.613281 204.816406 570.632812 204.925781 571.628906 204.960938 C 575.058594 205.089844 578.136719 204.304688 581.035156 202.558594 C 585.5625 199.839844 588.648438 195.878906 591.039062 189.738281 C 591.074219 189.652344 591.113281 189.539062 591.148438 189.421875 L 591.503906 188.34375 C 591.664062 187.875 591.777344 187.527344 591.78125 187.503906 C 591.8125 187.433594 591.839844 187.359375 591.863281 187.285156 C 592.636719 184.957031 591.222656 182.535156 587.667969 180.089844 Z M 587.667969 180.089844 " fill-opacity="1" fill-rule="nonzero"/></g></g></g></svg>