<svg xmlns="http://www.w3.org/2000/svg" xmlns:xlink="http://www.w3.org/1999/xlink" width="1080" zoomAndPan="magnify" viewBox="0 0 810 809.999993" height="1080" preserveAspectRatio="xMidYMid meet" version="1.0"><defs><clipPath id="41605e23bf"><path d="M 20.25 20.25 L 789.75 20.25 L 789.75 789.75 L 20.25 789.75 Z M 20.25 20.25 " clip-rule="nonzero"/></clipPath><clipPath id="7aff51939a"><path d="M 405 20.25 L 789.75 20.25 L 789.75 405 L 405 405 Z M 405 20.25 " clip-rule="nonzero"/></clipPath><clipPath id="dd8975c6eb"><path d="M 150.507812 150.507812 L 659.492188 150.507812 L 659.492188 659.492188 L 150.507812 659.492188 Z M 150.507812 150.507812 " clip-rule="nonzero"/></clipPath><clipPath id="bd13680f4a"><path d="M 405 150.507812 C 264.445312 150.507812 150.507812 264.445312 150.507812 405 C 150.507812 545.550781 264.445312 659.492188 405 659.492188 C 545.550781 659.492188 659.492188 545.550781 659.492188 405 C 659.492188 264.445312 545.550781 150.507812 405 150.507812 Z M 405 150.507812 " clip-rule="nonzero"/></clipPath><clipPath id="e1eafd7d1d"><path d="M 177.175781 344 L 223 344 L 223 371 L 177.175781 371 Z M 177.175781 344 " clip-rule="nonzero"/></clipPath><clipPath id="f4569d0937"><path d="M 177.175781 403 L 223 403 L 223 430 L 177.175781 430 Z M 177.175781 403 " clip-rule="nonzero"/></clipPath><clipPath id="1af85f4197"><path d="M 177.175781 462 L 223 462 L 223 489 L 177.175781 489 Z M 177.175781 462 " clip-rule="nonzero"/></clipPath><clipPath id="3ab4b135b0"><path d="M 177.175781 521 L 223 521 L 223 548 L 177.175781 548 Z M 177.175781 521 " clip-rule="nonzero"/></clipPath><clipPath id="96468b5b13"><path d="M 177.175781 580 L 223 580 L 223 607 L 177.175781 607 Z M 177.175781 580 " clip-rule="nonzero"/></clipPath><clipPath id="2f8cd1b21c"><path d="M 210 321 L 421 321 L 421 629.1875 L 210 629.1875 Z M 210 321 " clip-rule="nonzero"/></clipPath></defs><g clip-path="url(#41605e23bf)"><path fill="#5e17eb" d="M 437.65625 576.742188 C 401.585938 569.914062 365.515625 544.15625 325.960938 506.3125 L 279.640625 459.992188 C 240.085938 420.4375 214.332031 386.078125 209.210938 348.296875 C 202.308594 301.914062 226.355469 265.84375 253.820312 240.085938 C 260.71875 233.257812 267.617188 228.0625 276.15625 224.648438 C 286.472656 221.234375 298.496094 224.648438 307.105469 233.257812 C 322.542969 252.109375 337.984375 272.742188 351.78125 291.664062 C 356.90625 300.203125 358.613281 310.519531 356.90625 319.128906 C 353.492188 325.960938 350.007812 331.152344 343.175781 336.273438 C 331.152344 344.882812 324.25 358.613281 324.25 374.054688 C 325.960938 387.851562 332.859375 399.875 343.175781 408.414062 L 375.828125 441.070312 C 384.367188 451.386719 396.390625 458.21875 410.125 459.992188 C 425.5625 461.703125 439.363281 453.09375 449.609375 441.070312 C 454.800781 435.945312 459.992188 430.753906 466.824219 427.339844 C 477.140625 425.632812 485.679688 427.339844 494.289062 432.460938 C 513.210938 447.96875 533.773438 461.703125 552.695312 477.140625 C 561.304688 485.75 564.71875 496.0625 561.304688 508.085938 C 557.820312 516.625 552.695312 523.527344 545.796875 530.359375 C 513.210938 564.71875 473.65625 581.9375 437.585938 576.742188 Z M 405 20.25 C 191.992188 20.25 20.25 191.992188 20.25 405 C 20.25 618.007812 191.992188 789.75 405 789.75 C 618.007812 789.75 789.75 618.007812 789.75 405 C 789.75 191.992188 618.007812 20.25 405 20.25 " fill-opacity="1" fill-rule="nonzero"/></g><g clip-path="url(#7aff51939a)"><path fill="#5e17eb" d="M 405 20.25 L 789.75 20.25 L 789.75 405 L 405 405 Z M 405 20.25 " fill-opacity="1" fill-rule="nonzero"/></g><g clip-path="url(#dd8975c6eb)"><g clip-path="url(#bd13680f4a)"><path fill="#5e17eb" d="M 150.507812 150.507812 L 659.492188 150.507812 L 659.492188 659.492188 L 150.507812 659.492188 Z M 150.507812 150.507812 " fill-opacity="1" fill-rule="nonzero"/></g></g><g clip-path="url(#e1eafd7d1d)"><path fill="#ffffff" d="M 183.003906 369.734375 C 183.742188 369.96875 184.496094 370.078125 185.226562 370.078125 C 188.34375 370.078125 191.230469 368.085938 192.21875 364.960938 C 193.296875 361.566406 195 360.460938 196.195312 359.929688 C 201.234375 357.667969 209.820312 360.46875 212.433594 361.644531 C 216.125 363.3125 220.453125 361.679688 222.136719 357.996094 C 223.8125 354.304688 222.1875 349.957031 218.496094 348.28125 C 216.875 347.550781 202.238281 341.1875 190.257812 346.511719 C 184.480469 349.074219 180.324219 353.917969 178.234375 360.519531 C 177.007812 364.386719 179.144531 368.507812 183.003906 369.734375 Z M 183.003906 369.734375 " fill-opacity="1" fill-rule="nonzero"/></g><g clip-path="url(#f4569d0937)"><path fill="#ffffff" d="M 183.003906 428.753906 C 183.742188 428.992188 184.496094 429.097656 185.226562 429.097656 C 188.34375 429.097656 191.230469 427.105469 192.21875 423.984375 C 193.296875 420.585938 195 419.484375 196.195312 418.953125 C 201.242188 416.695312 209.839844 419.503906 212.441406 420.664062 C 216.136719 422.34375 220.460938 420.6875 222.136719 417.019531 C 223.8125 413.328125 222.1875 408.980469 218.496094 407.300781 C 216.875 406.570312 202.238281 400.199219 190.257812 405.53125 C 184.480469 408.097656 180.324219 412.941406 178.234375 419.539062 C 177.007812 423.410156 179.144531 427.53125 183.003906 428.753906 Z M 183.003906 428.753906 " fill-opacity="1" fill-rule="nonzero"/></g><g clip-path="url(#1af85f4197)"><path fill="#ffffff" d="M 183.003906 487.777344 C 183.742188 488.011719 184.496094 488.121094 185.226562 488.121094 C 188.34375 488.121094 191.230469 486.128906 192.21875 483.003906 C 193.296875 479.609375 195 478.503906 196.195312 477.972656 C 201.234375 475.710938 209.820312 478.511719 212.433594 479.6875 C 216.125 481.347656 220.453125 479.714844 222.136719 476.039062 C 223.8125 472.351562 222.1875 468 218.496094 466.324219 C 216.875 465.585938 202.238281 459.230469 190.257812 464.554688 C 184.480469 467.117188 180.324219 471.960938 178.234375 478.5625 C 177.007812 482.429688 179.144531 486.550781 183.003906 487.777344 Z M 183.003906 487.777344 " fill-opacity="1" fill-rule="nonzero"/></g><g clip-path="url(#3ab4b135b0)"><path fill="#ffffff" d="M 183.003906 546.796875 C 183.742188 547.035156 184.496094 547.140625 185.226562 547.140625 C 188.34375 547.140625 191.230469 545.148438 192.21875 542.027344 C 193.296875 538.628906 195 537.527344 196.195312 536.996094 C 201.242188 534.730469 209.839844 537.546875 212.441406 538.707031 C 216.136719 540.386719 220.460938 538.738281 222.136719 535.0625 C 223.8125 531.371094 222.1875 527.023438 218.496094 525.34375 C 216.875 524.613281 202.238281 518.242188 190.257812 523.574219 C 184.480469 526.140625 180.324219 530.984375 178.234375 537.582031 C 177.007812 541.453125 179.144531 545.574219 183.003906 546.796875 Z M 183.003906 546.796875 " fill-opacity="1" fill-rule="nonzero"/></g><g clip-path="url(#96468b5b13)"><path fill="#ffffff" d="M 222.136719 594.074219 C 223.8125 590.386719 222.1875 586.035156 218.496094 584.359375 C 216.875 583.621094 202.214844 577.257812 190.257812 582.589844 C 184.480469 585.15625 180.324219 590.003906 178.234375 596.613281 C 177.007812 600.472656 179.144531 604.59375 183.011719 605.820312 C 183.75 606.054688 184.496094 606.164062 185.226562 606.164062 C 188.34375 606.164062 191.230469 604.171875 192.21875 601.039062 C 193.296875 597.644531 195.007812 596.546875 196.195312 596.011719 C 201.253906 593.746094 209.832031 596.5625 212.441406 597.722656 C 216.136719 599.398438 220.460938 597.746094 222.136719 594.074219 Z M 222.136719 594.074219 " fill-opacity="1" fill-rule="nonzero"/></g><path fill="#ffffff" d="M 620.925781 181.671875 L 485.113281 181.671875 C 478.582031 181.671875 473.226562 187.027344 473.226562 193.558594 L 473.226562 228.332031 L 632.8125 228.332031 L 632.8125 193.558594 C 632.8125 187.027344 627.457031 181.671875 620.925781 181.671875 Z M 563.039062 212.394531 L 542.96875 212.394531 C 538.910156 212.394531 535.628906 209.113281 535.628906 205.058594 C 535.628906 201.003906 538.910156 197.71875 542.96875 197.71875 L 563.039062 197.71875 C 567.09375 197.71875 570.375 201.003906 570.375 205.058594 C 570.375 209.113281 567.09375 212.394531 563.039062 212.394531 Z M 563.039062 212.394531 " fill-opacity="1" fill-rule="nonzero"/><g clip-path="url(#2f8cd1b21c)"><path fill="#ffffff" d="M 340.199219 341.921875 C 340.199219 334.949219 341.003906 328.128906 342.546875 321.597656 L 222.875 321.597656 C 217.078125 321.597656 212.160156 325.414062 210.695312 330.695312 C 217.445312 331.941406 222.652344 334.070312 224.5625 334.878906 C 235.640625 339.941406 240.484375 353 235.492188 364.082031 C 231.898438 371.929688 224.046875 376.992188 215.464844 376.992188 C 213.628906 376.992188 211.792969 376.773438 210.03125 376.261719 L 210.03125 389.613281 C 217.152344 390.789062 222.652344 393.0625 224.5625 393.941406 C 235.640625 398.933594 240.484375 412.066406 235.492188 423.074219 C 231.898438 430.925781 224.046875 435.988281 215.464844 435.988281 C 213.628906 435.988281 211.792969 435.765625 210.03125 435.253906 L 210.03125 448.605469 C 217.152344 449.78125 222.652344 452.128906 224.5625 452.9375 C 235.640625 458 240.484375 471.058594 235.492188 482.140625 C 231.898438 489.988281 224.046875 494.980469 215.464844 494.980469 C 213.628906 494.980469 211.792969 494.757812 210.03125 494.246094 L 210.03125 507.671875 C 217.152344 508.847656 222.652344 511.121094 224.5625 512.003906 C 235.640625 516.992188 240.484375 530.050781 235.492188 541.132812 C 231.898438 548.984375 224.046875 554.046875 215.464844 554.046875 C 213.628906 554.046875 211.792969 553.824219 210.03125 553.3125 L 210.03125 566.59375 C 217.152344 567.839844 222.652344 570.1875 224.5625 570.996094 C 235.640625 575.984375 240.484375 589.117188 235.492188 600.125 C 231.898438 607.976562 224.046875 613.039062 215.464844 613.039062 C 213.628906 613.039062 211.792969 612.816406 210.03125 612.304688 L 210.03125 616.191406 C 210.03125 623.238281 215.757812 629.035156 222.875 629.035156 L 407.847656 629.035156 C 414.894531 629.035156 420.691406 623.238281 420.691406 616.191406 L 420.691406 432.90625 C 375.34375 427.328125 340.199219 388.660156 340.199219 341.921875 Z M 385.277344 514.796875 C 377.289062 528.769531 368.683594 542.734375 359.703125 556.3125 C 351.457031 568.78125 342.730469 581.148438 333.765625 593.074219 C 325.402344 604.195312 311.789062 609.882812 296.800781 609.882812 C 284.382812 609.882812 271.027344 605.976562 258.929688 598.015625 C 255.132812 595.523438 252.460938 591.734375 251.613281 587.625 C 250.898438 584.167969 251.519531 580.710938 253.378906 577.902344 L 268.425781 555.03125 C 271.554688 550.265625 276.9375 547.269531 283.179688 546.820312 C 288.816406 546.402344 294.679688 548.046875 299.789062 551.40625 C 300.203125 551.679688 300.570312 551.808594 300.832031 551.863281 C 307.058594 544.148438 312.992188 536.027344 318.480469 527.722656 C 324.191406 519.097656 329.546875 510.054688 334.410156 500.832031 C 334.253906 500.609375 333.980469 500.324219 333.566406 500.050781 C 328.464844 496.691406 324.636719 491.917969 322.789062 486.601562 C 320.738281 480.699219 321.363281 474.570312 324.5 469.804688 L 339.578125 446.898438 C 341.410156 444.097656 344.335938 442.148438 347.796875 441.4375 C 351.921875 440.570312 356.4375 441.53125 360.242188 444.039062 C 386.933594 461.59375 397.933594 492.679688 385.277344 514.796875 Z M 385.277344 514.796875 " fill-opacity="1" fill-rule="nonzero"/></g><path fill="#ffffff" d="M 509.03125 341.921875 C 509.03125 299.4375 474.398438 264.878906 431.917969 264.878906 C 389.433594 264.878906 354.875 299.4375 354.875 341.921875 C 354.875 383.011719 387.230469 416.617188 427.808594 418.816406 C 427.878906 418.816406 427.953125 418.742188 428.027344 418.742188 C 428.175781 418.742188 428.246094 418.816406 428.394531 418.816406 C 429.566406 418.890625 430.742188 418.964844 431.917969 418.964844 C 474.398438 418.964844 509.03125 384.40625 509.03125 341.921875 Z M 463.195312 378.226562 L 419.089844 378.226562 L 425.367188 384.164062 C 428.3125 386.953125 428.441406 391.59375 425.65625 394.539062 C 424.207031 396.066406 422.265625 396.832031 420.324219 396.832031 C 418.511719 396.832031 416.699219 396.167969 415.28125 394.828125 L 395.605469 376.210938 C 395.582031 376.191406 395.578125 376.164062 395.554688 376.140625 C 394.882812 375.492188 394.339844 374.714844 393.957031 373.847656 C 393.945312 373.820312 393.917969 373.800781 393.90625 373.777344 C 393.527344 372.886719 393.3125 371.914062 393.3125 370.886719 L 393.3125 370.878906 C 393.3125 370.769531 393.371094 370.675781 393.375 370.566406 C 393.417969 369.664062 393.566406 368.792969 393.902344 368.003906 C 393.988281 367.804688 394.160156 367.660156 394.261719 367.46875 C 394.621094 366.804688 395.011719 366.160156 395.550781 365.636719 C 395.574219 365.609375 395.585938 365.574219 395.609375 365.550781 L 415.285156 346.949219 C 418.210938 344.160156 422.875 344.28125 425.65625 347.242188 C 428.441406 350.179688 428.304688 354.828125 425.363281 357.609375 L 419.078125 363.550781 L 463.195312 363.550781 C 467.25 363.550781 470.53125 366.832031 470.53125 370.886719 C 470.53125 374.941406 467.25 378.226562 463.195312 378.226562 Z M 470.53125 312.953125 C 470.53125 313.984375 470.316406 314.957031 469.933594 315.84375 C 469.925781 315.863281 469.90625 315.878906 469.898438 315.898438 C 469.515625 316.773438 468.964844 317.554688 468.289062 318.210938 C 468.265625 318.230469 468.261719 318.257812 468.238281 318.277344 L 448.5625 336.894531 C 447.144531 338.234375 445.332031 338.902344 443.519531 338.902344 C 441.578125 338.902344 439.636719 338.132812 438.1875 336.609375 C 435.398438 333.664062 435.53125 329.019531 438.472656 326.230469 L 444.753906 320.292969 L 400.648438 320.292969 C 396.59375 320.292969 393.3125 317.011719 393.3125 312.953125 C 393.3125 308.898438 396.59375 305.617188 400.648438 305.617188 L 444.765625 305.617188 L 438.480469 299.675781 C 435.535156 296.898438 435.398438 292.246094 438.1875 289.308594 C 440.960938 286.34375 445.625 286.234375 448.554688 289.015625 L 468.230469 307.617188 C 468.257812 307.640625 468.269531 307.679688 468.292969 307.703125 C 468.835938 308.230469 469.230469 308.878906 469.589844 309.550781 C 469.6875 309.734375 469.855469 309.878906 469.9375 310.070312 C 470.277344 310.863281 470.429688 311.738281 470.46875 312.644531 C 470.472656 312.75 470.53125 312.84375 470.53125 312.949219 C 470.53125 312.949219 470.53125 312.949219 470.53125 312.953125 Z M 470.53125 312.953125 " fill-opacity="1" fill-rule="nonzero"/><path fill="#ffffff" d="M 473.226562 483.3125 C 473.226562 489.917969 478.582031 495.273438 485.113281 495.273438 L 620.925781 495.273438 C 627.457031 495.273438 632.8125 489.917969 632.8125 483.3125 L 632.8125 452.496094 L 473.226562 452.496094 Z M 551.96875 464.632812 L 554.046875 464.632812 C 558.101562 464.632812 561.382812 467.914062 561.382812 471.96875 C 561.382812 476.027344 558.101562 479.308594 554.046875 479.308594 L 551.96875 479.308594 C 547.910156 479.308594 544.628906 476.027344 544.628906 471.96875 C 544.628906 467.914062 547.910156 464.632812 551.96875 464.632812 Z M 551.96875 464.632812 " fill-opacity="1" fill-rule="nonzero"/><path fill="#ffffff" d="M 473.226562 260.109375 C 503.089844 275.222656 523.707031 306.1875 523.707031 341.921875 C 523.707031 377.65625 503.089844 408.617188 473.226562 423.734375 L 473.226562 437.820312 L 632.8125 437.820312 L 632.8125 243.007812 L 473.226562 243.007812 Z M 473.226562 260.109375 " fill-opacity="1" fill-rule="nonzero"/></svg>