<svg xmlns="http://www.w3.org/2000/svg" xmlns:xlink="http://www.w3.org/1999/xlink" width="500" zoomAndPan="magnify" viewBox="0 0 375 374.999991" height="500" preserveAspectRatio="xMidYMid meet" version="1.0"><defs><clipPath id="81847c8ae4"><path d="M 34 42 L 119 42 L 119 333.269531 L 34 333.269531 Z M 34 42 " clip-rule="nonzero"/></clipPath><clipPath id="43be9a4b48"><path d="M 76.667969 333.125 C 53.421875 333.125 34.40625 314.113281 34.40625 290.871094 L 34.40625 84.726562 C 34.40625 61.488281 53.421875 42.472656 76.667969 42.472656 C 99.914062 42.472656 118.933594 61.488281 118.933594 84.726562 L 118.933594 290.871094 C 118.933594 314.414062 99.914062 333.125 76.667969 333.125 Z M 76.667969 333.125 " clip-rule="nonzero"/></clipPath><clipPath id="200b43f3cd"><path d="M 34 42 L 231 42 L 231 289 L 34 289 Z M 34 42 " clip-rule="nonzero"/></clipPath><clipPath id="a07fb166cf"><path d="M 187.761719 288.15625 C 174.480469 288.15625 161.195312 281.816406 153.046875 269.742188 L 41.953125 108.570312 C 28.667969 89.253906 33.5 62.996094 52.820312 49.714844 C 72.140625 36.4375 98.40625 41.265625 111.6875 60.582031 L 222.78125 221.753906 C 236.0625 241.070312 231.234375 267.328125 211.914062 280.609375 C 204.363281 285.742188 196.214844 288.15625 187.761719 288.15625 Z M 187.761719 288.15625 " clip-rule="nonzero"/></clipPath><clipPath id="38d89d378e"><path d="M 145 42 L 341.351562 42 L 341.351562 289 L 145 289 Z M 145 42 " clip-rule="nonzero"/></clipPath><clipPath id="9dd4a3119a"><path d="M 187.761719 288.15625 C 179.609375 288.15625 171.160156 285.742188 163.914062 280.609375 C 144.59375 267.328125 139.761719 241.070312 153.046875 221.753906 L 264.136719 60.582031 C 277.421875 41.265625 303.6875 36.4375 323.007812 49.714844 C 342.328125 62.996094 347.15625 89.253906 333.875 108.570312 L 222.480469 270.046875 C 214.328125 281.816406 201.046875 288.15625 187.761719 288.15625 Z M 187.761719 288.15625 " clip-rule="nonzero"/></clipPath><clipPath id="1b11aaf194"><path d="M 256 42 L 341.351562 42 L 341.351562 333.269531 L 256 333.269531 Z M 256 42 " clip-rule="nonzero"/></clipPath><clipPath id="e1648b4f55"><path d="M 298.855469 333.125 C 275.609375 333.125 256.589844 314.113281 256.589844 290.871094 L 256.589844 84.726562 C 256.589844 61.488281 275.609375 42.472656 298.855469 42.472656 C 322.101562 42.472656 341.117188 61.488281 341.117188 84.726562 L 341.117188 290.871094 C 341.117188 314.414062 322.101562 333.125 298.855469 333.125 Z M 298.855469 333.125 " clip-rule="nonzero"/></clipPath><clipPath id="2585000088"><path d="M 264.355469 254.875 L 331.226562 254.875 L 331.226562 321.742188 L 264.355469 321.742188 Z M 264.355469 254.875 " clip-rule="nonzero"/></clipPath><clipPath id="0b21260d5c"><path d="M 297.792969 254.875 C 279.328125 254.875 264.355469 269.84375 264.355469 288.308594 C 264.355469 306.773438 279.328125 321.742188 297.792969 321.742188 C 316.257812 321.742188 331.226562 306.773438 331.226562 288.308594 C 331.226562 269.84375 316.257812 254.875 297.792969 254.875 Z M 297.792969 254.875 " clip-rule="nonzero"/></clipPath><clipPath id="d94f4b6828"><path d="M 284 274 L 312 274 L 312 303 L 284 303 Z M 284 274 " clip-rule="nonzero"/></clipPath><clipPath id="ddcbe7b0aa"><path d="M 284.628906 274.050781 L 312.164062 275.0625 L 311.148438 302.597656 L 283.617188 301.582031 Z M 284.628906 274.050781 " clip-rule="nonzero"/></clipPath><clipPath id="5be3b42e60"><path d="M 284.628906 274.050781 L 312.164062 275.0625 L 311.148438 302.597656 L 283.617188 301.582031 Z M 284.628906 274.050781 " clip-rule="nonzero"/></clipPath></defs><g clip-path="url(#81847c8ae4)"><g clip-path="url(#43be9a4b48)"><path fill="#ff2d5a" d="M 34.40625 42.472656 L 34.40625 333.125 L 118.933594 333.125 L 118.933594 42.472656 Z M 34.40625 42.472656 " fill-opacity="1" fill-rule="nonzero"/></g></g><g clip-path="url(#200b43f3cd)"><g clip-path="url(#a07fb166cf)"><path fill="#ff2d5a" d="M 33.414062 41.539062 L 33.414062 288.15625 L 236.0625 288.15625 L 236.0625 41.539062 Z M 33.414062 41.539062 " fill-opacity="1" fill-rule="nonzero"/></g></g><g clip-path="url(#38d89d378e)"><g clip-path="url(#9dd4a3119a)"><path fill="#ff2d5a" d="M 139.761719 41.539062 L 139.761719 288.15625 L 341.351562 288.15625 L 341.351562 41.539062 Z M 139.761719 41.539062 " fill-opacity="1" fill-rule="nonzero"/></g></g><g clip-path="url(#1b11aaf194)"><g clip-path="url(#e1648b4f55)"><path fill="#ff2d5a" d="M 256.589844 42.472656 L 256.589844 333.125 L 341.117188 333.125 L 341.117188 42.472656 Z M 256.589844 42.472656 " fill-opacity="1" fill-rule="nonzero"/></g></g><g clip-path="url(#2585000088)"><g clip-path="url(#0b21260d5c)"><path fill="#fb99ae" d="M 264.355469 254.875 L 331.226562 254.875 L 331.226562 321.742188 L 264.355469 321.742188 Z M 264.355469 254.875 " fill-opacity="1" fill-rule="nonzero"/></g></g><g clip-path="url(#d94f4b6828)"><g clip-path="url(#ddcbe7b0aa)"><g clip-path="url(#5be3b42e60)"><path fill="#ffffff" d="M 309.617188 294.460938 C 308.777344 293.882812 307.605469 293.332031 306.320312 292.90625 C 305.042969 292.484375 303.78125 292.234375 302.769531 292.195312 C 301.394531 292.144531 300.574219 292.492188 300.324219 293.238281 C 300.324219 293.238281 300.226562 293.542969 300.101562 293.90625 C 300.09375 293.925781 300.089844 293.949219 300.082031 293.972656 L 299.8125 294.796875 C 299.535156 294.710938 299.292969 294.550781 299.097656 294.332031 L 292.105469 286.503906 C 291.824219 286.191406 291.683594 285.78125 291.699219 285.359375 C 291.75 285.34375 291.804688 285.332031 291.855469 285.316406 C 292.125 285.355469 292.375 285.316406 292.554688 285.21875 L 293.640625 284.671875 C 293.929688 284.523438 294.171875 284.402344 294.195312 284.386719 C 294.222656 284.378906 294.25 284.367188 294.277344 284.351562 C 295.710938 283.621094 294.863281 280.675781 293.699219 278.378906 C 293.355469 277.703125 291.554688 274.316406 289.828125 274.25 C 289.613281 274.242188 289.410156 274.285156 289.222656 274.378906 C 289.214844 274.382812 289.203125 274.390625 289.195312 274.394531 L 288.597656 274.695312 C 288.578125 274.707031 288.554688 274.71875 288.53125 274.734375 C 287.648438 275.175781 287 275.667969 286.304688 276.417969 C 285.851562 276.902344 285.476562 277.4375 285.1875 278 C 284.601562 279.144531 284.394531 280.390625 284.609375 281.519531 C 284.835938 284.902344 287.34375 289.5 291.492188 294.140625 C 295.390625 298.507812 300.015625 301.597656 303.566406 302.210938 C 303.910156 302.273438 304.234375 302.308594 304.546875 302.320312 C 305.632812 302.359375 306.605469 302.109375 307.519531 301.558594 C 308.953125 300.699219 309.925781 299.449219 310.683594 297.507812 C 310.695312 297.480469 310.707031 297.445312 310.71875 297.40625 L 310.828125 297.066406 C 310.878906 296.917969 310.914062 296.808594 310.917969 296.800781 C 310.925781 296.777344 310.9375 296.757812 310.945312 296.734375 C 311.1875 295.996094 310.742188 295.230469 309.617188 294.460938 Z M 309.617188 294.460938 " fill-opacity="1" fill-rule="nonzero"/></g></g></g></svg>