<svg xmlns="http://www.w3.org/2000/svg" xmlns:xlink="http://www.w3.org/1999/xlink" width="786" zoomAndPan="magnify" viewBox="0 0 589.5 191.249993" height="255" preserveAspectRatio="xMidYMid meet" version="1.0"><defs><g/><clipPath id="9bbc72316c"><path d="M 0.902344 38.417969 L 114.570312 38.417969 L 114.570312 152.085938 L 0.902344 152.085938 Z M 0.902344 38.417969 " clip-rule="nonzero"/></clipPath><clipPath id="374f9f617f"><path d="M 57.734375 38.417969 L 114.570312 38.417969 L 114.570312 95.25 L 57.734375 95.25 Z M 57.734375 38.417969 " clip-rule="nonzero"/></clipPath><clipPath id="76949ea977"><path d="M 20.144531 57.660156 L 95.328125 57.660156 L 95.328125 132.84375 L 20.144531 132.84375 Z M 20.144531 57.660156 " clip-rule="nonzero"/></clipPath><clipPath id="ff96ea9a38"><path d="M 57.734375 57.660156 C 36.972656 57.660156 20.144531 74.488281 20.144531 95.25 C 20.144531 116.011719 36.972656 132.84375 57.734375 132.84375 C 78.496094 132.84375 95.328125 116.011719 95.328125 95.25 C 95.328125 74.488281 78.496094 57.660156 57.734375 57.660156 Z M 57.734375 57.660156 " clip-rule="nonzero"/></clipPath><clipPath id="58e82cd476"><path d="M 29.589844 70.027344 L 85.871094 70.027344 L 85.871094 127 L 29.589844 127 Z M 29.589844 70.027344 " clip-rule="nonzero"/></clipPath></defs><g clip-path="url(#9bbc72316c)"><path fill="#5e17eb" d="M 62.558594 120.621094 C 57.230469 119.613281 51.902344 115.808594 46.058594 110.214844 L 39.21875 103.375 C 33.375 97.53125 29.570312 92.457031 28.816406 86.875 C 27.796875 80.023438 31.347656 74.695312 35.402344 70.890625 C 36.421875 69.882812 37.441406 69.117188 38.703125 68.609375 C 40.226562 68.105469 42.003906 68.609375 43.273438 69.882812 C 45.554688 72.667969 47.835938 75.714844 49.875 78.511719 C 50.632812 79.773438 50.882812 81.296875 50.632812 82.566406 C 50.128906 83.574219 49.613281 84.34375 48.601562 85.101562 C 46.828125 86.371094 45.808594 88.398438 45.808594 90.679688 C 46.058594 92.71875 47.078125 94.496094 48.601562 95.757812 L 53.425781 100.578125 C 54.6875 102.101562 56.464844 103.113281 58.492188 103.375 C 60.773438 103.628906 62.8125 102.355469 64.324219 100.578125 C 65.09375 99.824219 65.859375 99.054688 66.867188 98.550781 C 68.390625 98.300781 69.652344 98.550781 70.925781 99.308594 C 73.71875 101.597656 76.757812 103.628906 79.554688 105.90625 C 80.824219 107.179688 81.328125 108.703125 80.824219 110.480469 C 80.308594 111.742188 79.554688 112.757812 78.535156 113.769531 C 73.71875 118.84375 67.878906 121.386719 62.550781 120.621094 Z M 57.734375 38.417969 C 26.273438 38.417969 0.902344 63.785156 0.902344 95.25 C 0.902344 126.714844 26.273438 152.085938 57.734375 152.085938 C 89.199219 152.085938 114.570312 126.714844 114.570312 95.25 C 114.570312 63.785156 89.199219 38.417969 57.734375 38.417969 " fill-opacity="1" fill-rule="nonzero"/></g><g clip-path="url(#374f9f617f)"><path fill="#5e17eb" d="M 57.734375 38.417969 L 114.570312 38.417969 L 114.570312 95.25 L 57.734375 95.25 Z M 57.734375 38.417969 " fill-opacity="1" fill-rule="nonzero"/></g><g clip-path="url(#76949ea977)"><g clip-path="url(#ff96ea9a38)"><path fill="#5e17eb" d="M 20.144531 57.660156 L 95.328125 57.660156 L 95.328125 132.84375 L 20.144531 132.84375 Z M 20.144531 57.660156 " fill-opacity="1" fill-rule="nonzero"/></g></g><g clip-path="url(#58e82cd476)"><path fill="#ffffff" d="M 57.734375 70.0625 C 56.8125 70.0625 55.894531 70.109375 54.976562 70.199219 C 54.058594 70.292969 53.148438 70.425781 52.242188 70.609375 C 51.339844 70.789062 50.445312 71.011719 49.5625 71.28125 C 48.679688 71.550781 47.8125 71.859375 46.960938 72.214844 C 46.109375 72.566406 45.277344 72.960938 44.464844 73.398438 C 43.652344 73.832031 42.863281 74.304688 42.09375 74.816406 C 41.328125 75.332031 40.589844 75.878906 39.875 76.464844 C 39.164062 77.050781 38.480469 77.667969 37.828125 78.320312 C 37.175781 78.972656 36.558594 79.65625 35.972656 80.367188 C 35.386719 81.082031 34.839844 81.820312 34.328125 82.585938 C 33.8125 83.351562 33.339844 84.144531 32.90625 84.957031 C 32.46875 85.769531 32.074219 86.601562 31.722656 87.453125 C 31.371094 88.304688 31.058594 89.171875 30.789062 90.054688 C 30.523438 90.9375 30.296875 91.832031 30.117188 92.734375 C 29.9375 93.640625 29.800781 94.550781 29.707031 95.46875 C 29.617188 96.386719 29.570312 97.304688 29.570312 98.226562 C 31.117188 135.59375 84.359375 135.582031 85.902344 98.226562 C 85.902344 97.304688 85.855469 96.386719 85.761719 95.46875 C 85.671875 94.550781 85.535156 93.640625 85.355469 92.734375 C 85.175781 91.832031 84.949219 90.9375 84.683594 90.054688 C 84.414062 89.171875 84.101562 88.304688 83.75 87.453125 C 83.394531 86.601562 83 85.769531 82.566406 84.957031 C 82.132812 84.144531 81.65625 83.351562 81.144531 82.585938 C 80.632812 81.820312 80.082031 81.082031 79.5 80.367188 C 78.914062 79.65625 78.296875 78.972656 77.644531 78.320312 C 76.992188 77.667969 76.308594 77.050781 75.59375 76.464844 C 74.882812 75.878906 74.144531 75.332031 73.375 74.816406 C 72.609375 74.304688 71.820312 73.832031 71.007812 73.398438 C 70.195312 72.960938 69.363281 72.566406 68.507812 72.214844 C 67.65625 71.859375 66.789062 71.550781 65.910156 71.28125 C 65.027344 71.011719 64.132812 70.789062 63.230469 70.609375 C 62.324219 70.425781 61.414062 70.292969 60.496094 70.199219 C 59.578125 70.109375 58.65625 70.0625 57.734375 70.0625 Z M 66.59375 116.464844 C 51.460938 116.796875 38.222656 102.824219 39.410156 87.699219 C 39.1875 81.921875 45.019531 78.789062 50.054688 80.300781 C 50.429688 80.402344 50.648438 80.644531 50.707031 81.03125 L 52.542969 92.609375 C 52.496094 94.015625 50.136719 94.761719 49 95.117188 C 49.464844 96.476562 50.078125 97.765625 50.835938 98.988281 C 51.597656 100.207031 52.484375 101.324219 53.5 102.339844 C 54.515625 103.355469 55.632812 104.242188 56.851562 105 C 58.074219 105.757812 59.363281 106.371094 60.722656 106.832031 C 61.09375 105.648438 61.8125 103.335938 63.222656 103.289062 L 74.800781 105.121094 C 75.484375 105.179688 75.601562 106.050781 75.792969 106.558594 C 77.445312 112.351562 72.253906 117.167969 66.59375 116.464844 Z M 66.59375 116.464844 " fill-opacity="1" fill-rule="nonzero"/></g><g fill="#ffffff" fill-opacity="1"><g transform="translate(108.003619, 112.113784)"><g><path d="M 42.515625 -34.828125 L 42.515625 0 L 34.03125 0 L 34.03125 -20.890625 L 26.25 0 L 19.390625 0 L 11.5625 -20.9375 L 11.5625 0 L 3.078125 0 L 3.078125 -34.828125 L 13.09375 -34.828125 L 22.875 -10.71875 L 32.546875 -34.828125 Z M 42.515625 -34.828125 "/></g></g></g><g fill="#ffffff" fill-opacity="1"><g transform="translate(153.535441, 112.113784)"><g><path d="M 29.171875 -14.28125 C 29.171875 -13.488281 29.117188 -12.664062 29.015625 -11.8125 L 9.828125 -11.8125 C 9.953125 -10.09375 10.503906 -8.773438 11.484375 -7.859375 C 12.460938 -6.953125 13.660156 -6.5 15.078125 -6.5 C 17.191406 -6.5 18.664062 -7.390625 19.5 -9.171875 L 28.53125 -9.171875 C 28.0625 -7.359375 27.222656 -5.722656 26.015625 -4.265625 C 24.804688 -2.804688 23.289062 -1.664062 21.46875 -0.84375 C 19.65625 -0.0195312 17.625 0.390625 15.375 0.390625 C 12.664062 0.390625 10.253906 -0.1875 8.140625 -1.34375 C 6.023438 -2.5 4.367188 -4.148438 3.171875 -6.296875 C 1.984375 -8.453125 1.390625 -10.96875 1.390625 -13.84375 C 1.390625 -16.71875 1.972656 -19.226562 3.140625 -21.375 C 4.316406 -23.53125 5.960938 -25.1875 8.078125 -26.34375 C 10.203125 -27.5 12.632812 -28.078125 15.375 -28.078125 C 18.050781 -28.078125 20.429688 -27.515625 22.515625 -26.390625 C 24.597656 -25.265625 26.226562 -23.660156 27.40625 -21.578125 C 28.582031 -19.492188 29.171875 -17.0625 29.171875 -14.28125 Z M 20.484375 -16.515625 C 20.484375 -17.972656 19.988281 -19.128906 19 -19.984375 C 18.007812 -20.847656 16.769531 -21.28125 15.28125 -21.28125 C 13.851562 -21.28125 12.648438 -20.863281 11.671875 -20.03125 C 10.703125 -19.207031 10.101562 -18.035156 9.875 -16.515625 Z M 20.484375 -16.515625 "/></g></g></g><g fill="#ffffff" fill-opacity="1"><g transform="translate(184.088379, 112.113784)"><g><path d="M 30.40625 -27.6875 L 30.40625 0 L 21.921875 0 L 21.921875 -3.765625 C 21.066406 -2.546875 19.898438 -1.5625 18.421875 -0.8125 C 16.953125 -0.0703125 15.328125 0.296875 13.546875 0.296875 C 11.429688 0.296875 9.5625 -0.171875 7.9375 -1.109375 C 6.3125 -2.054688 5.050781 -3.421875 4.15625 -5.203125 C 3.269531 -6.992188 2.828125 -9.097656 2.828125 -11.515625 L 2.828125 -27.6875 L 11.265625 -27.6875 L 11.265625 -12.65625 C 11.265625 -10.800781 11.742188 -9.359375 12.703125 -8.328125 C 13.660156 -7.304688 14.945312 -6.796875 16.5625 -6.796875 C 18.21875 -6.796875 19.523438 -7.304688 20.484375 -8.328125 C 21.441406 -9.359375 21.921875 -10.800781 21.921875 -12.65625 L 21.921875 -27.6875 Z M 30.40625 -27.6875 "/></g></g></g><g fill="#ffffff" fill-opacity="1"><g transform="translate(217.518057, 112.113784)"><g><path d="M 14.34375 0.390625 C 11.925781 0.390625 9.773438 -0.0195312 7.890625 -0.84375 C 6.003906 -1.664062 4.515625 -2.796875 3.421875 -4.234375 C 2.328125 -5.679688 1.71875 -7.296875 1.59375 -9.078125 L 9.96875 -9.078125 C 10.070312 -8.117188 10.519531 -7.34375 11.3125 -6.75 C 12.101562 -6.15625 13.078125 -5.859375 14.234375 -5.859375 C 15.296875 -5.859375 16.113281 -6.0625 16.6875 -6.46875 C 17.269531 -6.882812 17.5625 -7.425781 17.5625 -8.09375 C 17.5625 -8.882812 17.144531 -9.46875 16.3125 -9.84375 C 15.488281 -10.226562 14.148438 -10.648438 12.296875 -11.109375 C 10.316406 -11.578125 8.664062 -12.066406 7.34375 -12.578125 C 6.019531 -13.085938 4.878906 -13.894531 3.921875 -15 C 2.960938 -16.113281 2.484375 -17.613281 2.484375 -19.5 C 2.484375 -21.082031 2.921875 -22.523438 3.796875 -23.828125 C 4.671875 -25.140625 5.957031 -26.175781 7.65625 -26.9375 C 9.363281 -27.695312 11.390625 -28.078125 13.734375 -28.078125 C 17.210938 -28.078125 19.953125 -27.21875 21.953125 -25.5 C 23.953125 -23.78125 25.101562 -21.5 25.40625 -18.65625 L 17.5625 -18.65625 C 17.425781 -19.613281 17.003906 -20.375 16.296875 -20.9375 C 15.585938 -21.5 14.65625 -21.78125 13.5 -21.78125 C 12.5 -21.78125 11.734375 -21.585938 11.203125 -21.203125 C 10.679688 -20.828125 10.421875 -20.304688 10.421875 -19.640625 C 10.421875 -18.847656 10.84375 -18.253906 11.6875 -17.859375 C 12.53125 -17.460938 13.84375 -17.066406 15.625 -16.671875 C 17.675781 -16.140625 19.347656 -15.617188 20.640625 -15.109375 C 21.929688 -14.597656 23.0625 -13.769531 24.03125 -12.625 C 25.007812 -11.488281 25.515625 -9.957031 25.546875 -8.03125 C 25.546875 -6.414062 25.09375 -4.96875 24.1875 -3.6875 C 23.28125 -2.414062 21.972656 -1.414062 20.265625 -0.6875 C 18.554688 0.03125 16.582031 0.390625 14.34375 0.390625 Z M 14.34375 0.390625 "/></g></g></g><g fill="#ffffff" fill-opacity="1"><g transform="translate(245.194269, 112.113784)"><g><path d="M 1.640625 -17.46875 C 1.640625 -20.90625 2.382812 -23.96875 3.875 -26.65625 C 5.363281 -29.351562 7.4375 -31.453125 10.09375 -32.953125 C 12.757812 -34.460938 15.78125 -35.21875 19.15625 -35.21875 C 23.28125 -35.21875 26.816406 -34.125 29.765625 -31.9375 C 32.710938 -29.757812 34.679688 -26.785156 35.671875 -23.015625 L 26.34375 -23.015625 C 25.644531 -24.472656 24.660156 -25.582031 23.390625 -26.34375 C 22.117188 -27.101562 20.671875 -27.484375 19.046875 -27.484375 C 16.429688 -27.484375 14.3125 -26.570312 12.6875 -24.75 C 11.070312 -22.9375 10.265625 -20.507812 10.265625 -17.46875 C 10.265625 -14.425781 11.070312 -11.992188 12.6875 -10.171875 C 14.3125 -8.347656 16.429688 -7.4375 19.046875 -7.4375 C 20.671875 -7.4375 22.117188 -7.816406 23.390625 -8.578125 C 24.660156 -9.335938 25.644531 -10.445312 26.34375 -11.90625 L 35.671875 -11.90625 C 34.679688 -8.132812 32.710938 -5.164062 29.765625 -3 C 26.816406 -0.832031 23.28125 0.25 19.15625 0.25 C 15.78125 0.25 12.757812 -0.5 10.09375 -2 C 7.4375 -3.507812 5.363281 -5.601562 3.875 -8.28125 C 2.382812 -10.957031 1.640625 -14.019531 1.640625 -17.46875 Z M 1.640625 -17.46875 "/></g></g></g><g fill="#ffffff" fill-opacity="1"><g transform="translate(282.988658, 112.113784)"><g><path d="M 15.671875 0.390625 C 12.960938 0.390625 10.523438 -0.1875 8.359375 -1.34375 C 6.191406 -2.5 4.488281 -4.148438 3.25 -6.296875 C 2.007812 -8.453125 1.390625 -10.96875 1.390625 -13.84375 C 1.390625 -16.6875 2.015625 -19.191406 3.265625 -21.359375 C 4.523438 -23.523438 6.242188 -25.1875 8.421875 -26.34375 C 10.609375 -27.5 13.0625 -28.078125 15.78125 -28.078125 C 18.488281 -28.078125 20.929688 -27.5 23.109375 -26.34375 C 25.296875 -25.1875 27.015625 -23.523438 28.265625 -21.359375 C 29.523438 -19.191406 30.15625 -16.6875 30.15625 -13.84375 C 30.15625 -11 29.519531 -8.492188 28.25 -6.328125 C 26.976562 -4.160156 25.242188 -2.5 23.046875 -1.34375 C 20.847656 -0.1875 18.390625 0.390625 15.671875 0.390625 Z M 15.671875 -6.953125 C 17.296875 -6.953125 18.675781 -7.546875 19.8125 -8.734375 C 20.957031 -9.921875 21.53125 -11.625 21.53125 -13.84375 C 21.53125 -16.0625 20.972656 -17.765625 19.859375 -18.953125 C 18.753906 -20.140625 17.394531 -20.734375 15.78125 -20.734375 C 14.125 -20.734375 12.75 -20.144531 11.65625 -18.96875 C 10.5625 -17.800781 10.015625 -16.09375 10.015625 -13.84375 C 10.015625 -11.625 10.550781 -9.921875 11.625 -8.734375 C 12.707031 -7.546875 14.054688 -6.953125 15.671875 -6.953125 Z M 15.671875 -6.953125 "/></g></g></g><g fill="#ffffff" fill-opacity="1"><g transform="translate(314.58318, 112.113784)"><g><path d="M 19.9375 -27.984375 C 23.1875 -27.984375 25.773438 -26.929688 27.703125 -24.828125 C 29.640625 -22.722656 30.609375 -19.835938 30.609375 -16.171875 L 30.609375 0 L 22.171875 0 L 22.171875 -15.03125 C 22.171875 -16.882812 21.691406 -18.320312 20.734375 -19.34375 C 19.773438 -20.375 18.488281 -20.890625 16.875 -20.890625 C 15.25 -20.890625 13.957031 -20.375 13 -19.34375 C 12.039062 -18.320312 11.5625 -16.882812 11.5625 -15.03125 L 11.5625 0 L 3.078125 0 L 3.078125 -27.6875 L 11.5625 -27.6875 L 11.5625 -24.015625 C 12.414062 -25.234375 13.570312 -26.195312 15.03125 -26.90625 C 16.488281 -27.625 18.125 -27.984375 19.9375 -27.984375 Z M 19.9375 -27.984375 "/></g></g></g><g fill="#ffffff" fill-opacity="1"><g transform="translate(348.012858, 112.113784)"><g><path d="M 18.5 -7.1875 L 18.5 0 L 14.1875 0 C 11.113281 0 8.71875 -0.75 7 -2.25 C 5.28125 -3.757812 4.421875 -6.21875 4.421875 -9.625 L 4.421875 -20.640625 L 1.046875 -20.640625 L 1.046875 -27.6875 L 4.421875 -27.6875 L 4.421875 -34.421875 L 12.90625 -34.421875 L 12.90625 -27.6875 L 18.453125 -27.6875 L 18.453125 -20.640625 L 12.90625 -20.640625 L 12.90625 -9.53125 C 12.90625 -8.695312 13.101562 -8.097656 13.5 -7.734375 C 13.894531 -7.367188 14.554688 -7.1875 15.484375 -7.1875 Z M 18.5 -7.1875 "/></g></g></g><g fill="#ffffff" fill-opacity="1"><g transform="translate(368.150026, 112.113784)"><g><path d="M 1.390625 -13.890625 C 1.390625 -16.734375 1.925781 -19.226562 3 -21.375 C 4.070312 -23.53125 5.535156 -25.1875 7.390625 -26.34375 C 9.242188 -27.5 11.3125 -28.078125 13.59375 -28.078125 C 15.539062 -28.078125 17.25 -27.679688 18.71875 -26.890625 C 20.195312 -26.097656 21.332031 -25.054688 22.125 -23.765625 L 22.125 -27.6875 L 30.609375 -27.6875 L 30.609375 0 L 22.125 0 L 22.125 -3.921875 C 21.300781 -2.628906 20.148438 -1.585938 18.671875 -0.796875 C 17.203125 -0.00390625 15.492188 0.390625 13.546875 0.390625 C 11.296875 0.390625 9.242188 -0.191406 7.390625 -1.359375 C 5.535156 -2.535156 4.070312 -4.207031 3 -6.375 C 1.925781 -8.539062 1.390625 -11.046875 1.390625 -13.890625 Z M 22.125 -13.84375 C 22.125 -15.957031 21.535156 -17.625 20.359375 -18.84375 C 19.191406 -20.070312 17.765625 -20.6875 16.078125 -20.6875 C 14.390625 -20.6875 12.957031 -20.082031 11.78125 -18.875 C 10.601562 -17.664062 10.015625 -16.003906 10.015625 -13.890625 C 10.015625 -11.773438 10.601562 -10.097656 11.78125 -8.859375 C 12.957031 -7.617188 14.390625 -7 16.078125 -7 C 17.765625 -7 19.191406 -7.609375 20.359375 -8.828125 C 21.535156 -10.054688 22.125 -11.726562 22.125 -13.84375 Z M 22.125 -13.84375 "/></g></g></g><g fill="#ffffff" fill-opacity="1"><g transform="translate(401.827689, 112.113784)"><g><path d="M 18.5 -7.1875 L 18.5 0 L 14.1875 0 C 11.113281 0 8.71875 -0.75 7 -2.25 C 5.28125 -3.757812 4.421875 -6.21875 4.421875 -9.625 L 4.421875 -20.640625 L 1.046875 -20.640625 L 1.046875 -27.6875 L 4.421875 -27.6875 L 4.421875 -34.421875 L 12.90625 -34.421875 L 12.90625 -27.6875 L 18.453125 -27.6875 L 18.453125 -20.640625 L 12.90625 -20.640625 L 12.90625 -9.53125 C 12.90625 -8.695312 13.101562 -8.097656 13.5 -7.734375 C 13.894531 -7.367188 14.554688 -7.1875 15.484375 -7.1875 Z M 18.5 -7.1875 "/></g></g></g><g fill="#ffffff" fill-opacity="1"><g transform="translate(421.964857, 112.113784)"><g><path d="M 15.671875 0.390625 C 12.960938 0.390625 10.523438 -0.1875 8.359375 -1.34375 C 6.191406 -2.5 4.488281 -4.148438 3.25 -6.296875 C 2.007812 -8.453125 1.390625 -10.96875 1.390625 -13.84375 C 1.390625 -16.6875 2.015625 -19.191406 3.265625 -21.359375 C 4.523438 -23.523438 6.242188 -25.1875 8.421875 -26.34375 C 10.609375 -27.5 13.0625 -28.078125 15.78125 -28.078125 C 18.488281 -28.078125 20.929688 -27.5 23.109375 -26.34375 C 25.296875 -25.1875 27.015625 -23.523438 28.265625 -21.359375 C 29.523438 -19.191406 30.15625 -16.6875 30.15625 -13.84375 C 30.15625 -11 29.519531 -8.492188 28.25 -6.328125 C 26.976562 -4.160156 25.242188 -2.5 23.046875 -1.34375 C 20.847656 -0.1875 18.390625 0.390625 15.671875 0.390625 Z M 15.671875 -6.953125 C 17.296875 -6.953125 18.675781 -7.546875 19.8125 -8.734375 C 20.957031 -9.921875 21.53125 -11.625 21.53125 -13.84375 C 21.53125 -16.0625 20.972656 -17.765625 19.859375 -18.953125 C 18.753906 -20.140625 17.394531 -20.734375 15.78125 -20.734375 C 14.125 -20.734375 12.75 -20.144531 11.65625 -18.96875 C 10.5625 -17.800781 10.015625 -16.09375 10.015625 -13.84375 C 10.015625 -11.625 10.550781 -9.921875 11.625 -8.734375 C 12.707031 -7.546875 14.054688 -6.953125 15.671875 -6.953125 Z M 15.671875 -6.953125 "/></g></g></g><g fill="#ffffff" fill-opacity="1"><g transform="translate(453.559379, 112.113784)"><g><path d="M 14.34375 0.390625 C 11.925781 0.390625 9.773438 -0.0195312 7.890625 -0.84375 C 6.003906 -1.664062 4.515625 -2.796875 3.421875 -4.234375 C 2.328125 -5.679688 1.71875 -7.296875 1.59375 -9.078125 L 9.96875 -9.078125 C 10.070312 -8.117188 10.519531 -7.34375 11.3125 -6.75 C 12.101562 -6.15625 13.078125 -5.859375 14.234375 -5.859375 C 15.296875 -5.859375 16.113281 -6.0625 16.6875 -6.46875 C 17.269531 -6.882812 17.5625 -7.425781 17.5625 -8.09375 C 17.5625 -8.882812 17.144531 -9.46875 16.3125 -9.84375 C 15.488281 -10.226562 14.148438 -10.648438 12.296875 -11.109375 C 10.316406 -11.578125 8.664062 -12.066406 7.34375 -12.578125 C 6.019531 -13.085938 4.878906 -13.894531 3.921875 -15 C 2.960938 -16.113281 2.484375 -17.613281 2.484375 -19.5 C 2.484375 -21.082031 2.921875 -22.523438 3.796875 -23.828125 C 4.671875 -25.140625 5.957031 -26.175781 7.65625 -26.9375 C 9.363281 -27.695312 11.390625 -28.078125 13.734375 -28.078125 C 17.210938 -28.078125 19.953125 -27.21875 21.953125 -25.5 C 23.953125 -23.78125 25.101562 -21.5 25.40625 -18.65625 L 17.5625 -18.65625 C 17.425781 -19.613281 17.003906 -20.375 16.296875 -20.9375 C 15.585938 -21.5 14.65625 -21.78125 13.5 -21.78125 C 12.5 -21.78125 11.734375 -21.585938 11.203125 -21.203125 C 10.679688 -20.828125 10.421875 -20.304688 10.421875 -19.640625 C 10.421875 -18.847656 10.84375 -18.253906 11.6875 -17.859375 C 12.53125 -17.460938 13.84375 -17.066406 15.625 -16.671875 C 17.675781 -16.140625 19.347656 -15.617188 20.640625 -15.109375 C 21.929688 -14.597656 23.0625 -13.769531 24.03125 -12.625 C 25.007812 -11.488281 25.515625 -9.957031 25.546875 -8.03125 C 25.546875 -6.414062 25.09375 -4.96875 24.1875 -3.6875 C 23.28125 -2.414062 21.972656 -1.414062 20.265625 -0.6875 C 18.554688 0.03125 16.582031 0.390625 14.34375 0.390625 Z M 14.34375 0.390625 "/></g></g></g><g fill="#ffffff" fill-opacity="1"><g transform="translate(481.235603, 112.113784)"><g><path d="M 24.75 -6.15625 L 11.75 -6.15625 L 9.671875 0 L 0.796875 0 L 13.390625 -34.828125 L 23.21875 -34.828125 L 35.8125 0 L 26.84375 0 Z M 22.578125 -12.703125 L 18.25 -25.453125 L 13.984375 -12.703125 Z M 22.578125 -12.703125 "/></g></g></g><g fill="#ffffff" fill-opacity="1"><g transform="translate(517.790018, 112.113784)"><g><path d="M 11.5625 -23.765625 C 12.382812 -25.054688 13.523438 -26.097656 14.984375 -26.890625 C 16.441406 -27.679688 18.144531 -28.078125 20.09375 -28.078125 C 22.375 -28.078125 24.441406 -27.5 26.296875 -26.34375 C 28.148438 -25.1875 29.613281 -23.53125 30.6875 -21.375 C 31.757812 -19.226562 32.296875 -16.734375 32.296875 -13.890625 C 32.296875 -11.046875 31.757812 -8.539062 30.6875 -6.375 C 29.613281 -4.207031 28.148438 -2.535156 26.296875 -1.359375 C 24.441406 -0.191406 22.375 0.390625 20.09375 0.390625 C 18.175781 0.390625 16.476562 -0.00390625 15 -0.796875 C 13.53125 -1.585938 12.382812 -2.613281 11.5625 -3.875 L 11.5625 13.203125 L 3.078125 13.203125 L 3.078125 -27.6875 L 11.5625 -27.6875 Z M 23.65625 -13.890625 C 23.65625 -16.003906 23.066406 -17.664062 21.890625 -18.875 C 20.722656 -20.082031 19.28125 -20.6875 17.5625 -20.6875 C 15.875 -20.6875 14.441406 -20.070312 13.265625 -18.84375 C 12.097656 -17.625 11.515625 -15.957031 11.515625 -13.84375 C 11.515625 -11.726562 12.097656 -10.054688 13.265625 -8.828125 C 14.441406 -7.609375 15.875 -7 17.5625 -7 C 19.25 -7 20.6875 -7.617188 21.875 -8.859375 C 23.0625 -10.097656 23.65625 -11.773438 23.65625 -13.890625 Z M 23.65625 -13.890625 "/></g></g></g><g fill="#ffffff" fill-opacity="1"><g transform="translate(551.467681, 112.113784)"><g><path d="M 11.5625 -23.765625 C 12.382812 -25.054688 13.523438 -26.097656 14.984375 -26.890625 C 16.441406 -27.679688 18.144531 -28.078125 20.09375 -28.078125 C 22.375 -28.078125 24.441406 -27.5 26.296875 -26.34375 C 28.148438 -25.1875 29.613281 -23.53125 30.6875 -21.375 C 31.757812 -19.226562 32.296875 -16.734375 32.296875 -13.890625 C 32.296875 -11.046875 31.757812 -8.539062 30.6875 -6.375 C 29.613281 -4.207031 28.148438 -2.535156 26.296875 -1.359375 C 24.441406 -0.191406 22.375 0.390625 20.09375 0.390625 C 18.175781 0.390625 16.476562 -0.00390625 15 -0.796875 C 13.53125 -1.585938 12.382812 -2.613281 11.5625 -3.875 L 11.5625 13.203125 L 3.078125 13.203125 L 3.078125 -27.6875 L 11.5625 -27.6875 Z M 23.65625 -13.890625 C 23.65625 -16.003906 23.066406 -17.664062 21.890625 -18.875 C 20.722656 -20.082031 19.28125 -20.6875 17.5625 -20.6875 C 15.875 -20.6875 14.441406 -20.070312 13.265625 -18.84375 C 12.097656 -17.625 11.515625 -15.957031 11.515625 -13.84375 C 11.515625 -11.726562 12.097656 -10.054688 13.265625 -8.828125 C 14.441406 -7.609375 15.875 -7 17.5625 -7 C 19.25 -7 20.6875 -7.617188 21.875 -8.859375 C 23.0625 -10.097656 23.65625 -11.773438 23.65625 -13.890625 Z M 23.65625 -13.890625 "/></g></g></g></svg>